<svg width="474" height="79" viewBox="0 0 474 79" fill="none" xmlns="http://www.w3.org/2000/svg">
<path d="M45.7414 2.18187C52.4959 -0.079424 58.9743 -0.648449 64.4322 0.782774L64.512 0.804009L64.5595 0.815283L64.5605 0.815502L64.5614 0.815831L64.6093 0.83006C66.1357 1.24419 67.54 1.80546 68.818 2.50159L68.8706 2.5283L68.8717 2.52885L68.8728 2.52951L68.9125 2.55337C70.7353 3.56066 72.2983 4.84456 73.5902 6.36897L73.6439 6.42797L73.6447 6.42884L73.6454 6.42983L73.7122 6.51444C73.8717 6.70712 74.0269 6.90365 74.1779 7.10376L74.185 7.11077L74.1872 7.11295L74.1889 7.11547L74.221 7.1609C74.5864 7.64956 74.9264 8.16007 75.2408 8.69123L75.2683 8.7279H75.2625C75.3563 8.88723 75.4478 9.04847 75.537 9.21148H75.5377L75.5459 9.22812C75.5473 9.23073 75.5488 9.23339 75.5502 9.236L75.5771 9.28219H75.5754C75.5972 9.32257 75.6189 9.3631 75.6405 9.40369L75.6581 9.43555H75.6574C75.7539 9.61797 75.8475 9.80266 75.9382 9.98951L75.9718 10.0566L75.9724 10.0579L75.973 10.0593L75.9778 10.0715C76.0646 10.2524 76.1486 10.4355 76.23 10.6204L76.243 10.6464L76.2443 10.6494L76.2565 10.6809C76.5027 11.2455 76.7242 11.8288 76.9206 12.4297C76.9376 12.482 76.9545 12.5345 76.9712 12.5871L76.974 12.5898L76.9765 12.5989L76.9861 12.6342C77.1679 13.2112 77.3269 13.8041 77.4627 14.4121L77.4702 14.4344L77.471 14.4369L77.4717 14.4388L77.4721 14.4407L77.5193 14.6648L77.5196 14.6662L77.5181 14.6664V14.6665L77.5196 14.6663L77.5252 14.6998C77.5685 14.906 77.609 15.114 77.647 15.3235L77.6543 15.3562H77.6617V15.4046C77.7771 16.0539 77.8672 16.7192 77.9319 17.3993L77.9325 17.4042L77.9327 17.4063V17.4076C77.9967 18.0834 78.0356 18.7739 78.049 19.4783L78.0504 19.4923L78.0506 19.4941V19.4958L78.0505 19.4967L78.054 19.5311H78.0506L78.0505 19.5729C78.0554 19.8829 78.0555 20.1956 78.0505 20.5108V20.5712L78.0504 20.573V20.6045H78.049C78.0356 21.3173 77.9969 22.0433 77.9328 22.7814V22.7981H77.9314C77.839 23.8559 77.6943 24.9389 77.4965 26.0445L77.4725 26.1889L77.4722 26.1899L77.4401 26.3534C76.9894 28.7624 76.2878 31.2767 75.3274 33.8699L75.2899 33.9785L75.2646 34.0515L75.2307 33.9929C75.225 33.9878 75.221 33.981 75.2195 33.9736L74.5304 32.7819L73.8234 31.5797L73.8229 31.5789L73.0908 30.4044L73.0716 30.3743L72.3199 29.2176L72.3151 29.2101L71.5252 28.0307V28.0306L71.054 27.3592L71.0538 27.359L70.7124 26.8642L70.7022 26.8502L69.8638 25.7088L69.3687 25.0484L69.3684 25.0482L69.0031 24.5529L68.9942 24.5408L68.9965 24.527C68.9966 24.5266 68.9966 24.5262 68.9966 24.5259L69.1022 23.9035V23.8808L69.1026 23.8783L69.1851 23.2886L69.2505 22.7981H69.248L69.2563 22.7558L69.2597 22.7391L69.2678 22.6979L69.3264 22.1106L69.3266 22.1083L69.3617 21.5341V21.5339L69.3969 20.9809L69.4087 20.4268L69.4088 20.4219V20.3921H69.4095L69.4205 19.8979L69.4098 19.5311H69.4089V19.4992L69.4088 19.4968L69.4087 19.4958H69.4088V19.3795L69.3852 18.8725V18.8724L69.3526 18.4815H69.3498V18.4492L69.3497 18.4477V18.3895L69.303 17.9087L69.3029 17.9083L69.2441 17.461L69.1736 17.0139L69.1735 17.0135L69.1734 17.013L69.1126 16.6373L69.1031 16.5789L69.0565 16.4156L69.0561 16.414L69.0557 16.4124L69.0086 16.1647V16.1646L68.9149 15.7786L68.9136 15.7739L68.8165 15.4506H68.8077V15.4207L68.8076 15.4204V15.4152L68.8075 15.397L68.6915 15.0372L68.5735 14.6834L68.4802 14.4618L68.4796 14.4605L68.4793 14.4592L68.4444 14.3549L68.3039 14.0384L68.1649 13.7372L68.1628 13.7328L68.1596 13.7264L68.0101 13.4388V13.4389L67.8577 13.1573L67.6937 12.8876L67.5173 12.6288L67.3412 12.3823L66.9765 11.9115L66.5771 11.4884H66.5769L66.284 11.2189V11.2188L65.9796 10.9495L65.6506 10.6907L65.3454 10.4802L65.3104 10.456V10.4561L65.0405 10.2818L64.9462 10.2209L64.7236 10.1038L64.7225 10.1031L64.5575 10.009V10.0089L64.1472 9.79785L63.7134 9.61024L63.2548 9.43368L63.2532 9.43314L62.8911 9.32806L62.89 9.32773L62.8889 9.32729L62.762 9.2811H62.7618L62.2432 9.13957V9.13946L61.7029 9.0103L61.127 8.89274L61.1269 8.89263V8.89274L61.0861 8.88628L60.5266 8.7985L59.891 8.72779L59.2214 8.68072V8.68083L58.529 8.6573H57.8013L57.0547 8.6689H57.0546L56.278 8.72779L56.2781 8.7279L55.8958 8.76161L55.4765 8.79872L54.6651 8.89263L54.6653 8.89274L53.8171 9.02223L52.957 9.1874L52.9569 9.18729L52.0735 9.37589L52.0734 9.37578V9.37589L52.0698 9.37677H52.0695L51.1728 9.58649L51.1667 9.58802L50.2479 9.8354L50.2478 9.83529L49.318 10.1061L49.3182 10.1062L49.2837 10.1171L48.3642 10.4125L48.3644 10.4126L47.4093 10.7545L46.6792 11.0372H46.679L46.4527 11.1235L46.4317 11.1316L46.4316 11.1315L45.4541 11.532L45.4542 11.5321L44.4661 11.9557L44.4648 11.9564L44.4647 11.9563L44.4639 11.9567L43.4626 12.4163L42.4732 12.9053L42.4623 12.9111L42.4545 12.915H42.454L41.4484 13.4295L41.4485 13.4296L40.4346 13.9721L39.4212 14.5379L39.4211 14.5378L38.4081 15.1389L37.7012 15.575L37.7007 15.5754L37.3824 15.7641L37.1148 15.9352L36.3695 16.4121L36.3677 16.4132L36.1705 16.5526L36.1696 16.5533L36.1695 16.5532L35.3685 17.0834L35.3686 17.0835L35.3492 17.0971L34.6967 17.5553L34.6964 17.5555L34.3544 17.7912L34.3543 17.7911L33.3529 18.5103H33.3527L33.3528 18.5104L33.3512 18.5115L32.4008 19.2246L32.3632 19.2528L32.3631 19.2527V19.2528L31.892 19.6181L31.3733 20.0192L30.6378 20.6163H30.6402L30.5644 20.6758L30.5604 20.6791L30.56 20.6794L30.3949 20.8092L29.4296 21.6216L29.4297 21.6217L28.4751 22.4585L28.4752 22.4586L27.5367 23.3153L27.5324 23.3194L27.5323 23.3193L27.5322 23.3194L27.5323 23.3195L26.6009 24.1803L25.6938 25.076L25.6821 25.0875L25.6822 25.0876L24.7862 25.984L23.9146 26.9026L23.9148 26.9028L23.4785 27.3746L23.4782 27.375L23.0508 27.8255L23.0421 27.8348L22.206 28.7888L22.2061 28.7889L21.3819 29.7428L21.3726 29.7568H21.3703L20.5677 30.7226L20.4266 30.8991L20.4265 30.8992L19.7782 31.7011L19.4839 32.0894V32.0895L19.0674 32.6344L19.0242 32.6911L19.024 32.691L18.2819 33.6808L18.282 33.681L17.5631 34.6829L17.5632 34.683L16.8676 35.6855L16.8675 35.6853L16.1963 36.6986L15.5705 37.6775L15.5481 37.7123L15.5482 37.7124L15.542 37.7224L14.9383 38.7211L14.9354 38.726L14.9355 38.7261L14.5817 39.3276L14.5815 39.3278L14.3341 39.7406L14.3318 39.7444L13.8985 40.5412L13.8977 40.5428L13.7691 40.753L13.7692 40.7531L13.7592 40.7721L13.2505 41.7553L13.2479 41.7604L13.2439 41.7643L13.2365 41.7714L12.7323 42.7801L12.7324 42.7802L12.6499 42.9571L12.6498 42.9572L12.261 43.782L12.2611 43.7821L11.8155 44.7789L11.5657 45.362L11.3891 45.7737L11.3892 45.7738L11.3888 45.7748L11.0147 46.7452L11.0125 46.7516L11.0122 46.7523L10.649 47.713L10.6491 47.7302L10.6492 47.7658H10.6386L10.3168 48.6856L10.2464 48.9199L10.2463 48.9205L10.0225 49.6281L9.89302 50.0871L9.89291 50.0876L9.75143 50.5594L9.58665 51.195L9.51607 51.4661L9.33761 52.2356H9.33849L9.32754 52.2795L9.30391 52.374L9.12731 53.2453L8.97434 54.1043L8.97445 54.1044L8.97346 54.1103L8.8566 54.9414L8.85442 54.9603L8.79763 55.4828V55.4836L8.79369 55.483L8.79752 55.4836L8.76305 55.7481L8.76239 55.7533L8.70396 56.5369L8.70385 56.5383V56.5403L8.70396 56.5758H8.70156L8.65648 57.3092L8.65637 57.3109V57.425L8.65648 57.5429V57.5784H8.65571L8.64466 58.0509L8.65648 58.5446V58.7578L8.69171 59.4378L8.69992 59.5125L8.70353 59.5438L8.70364 59.5448L8.75058 60.0982L8.80944 60.51L8.80955 60.5111L8.83242 60.718L8.83308 60.7226H8.83297L8.93856 61.3217H8.93867L9.05629 61.8985L9.18191 62.4242L9.18606 62.4406L9.33816 62.9445H9.33827L9.45961 63.2866H9.46071L9.46662 63.3064L9.46793 63.3101L9.46815 63.3109L9.46848 63.3117L9.5001 63.4174L9.50327 63.4282L9.67976 63.8751L9.87902 64.2971L10.0785 64.7079L10.2902 65.0612L10.2952 65.0695V65.0921L10.3756 65.2128L10.5244 65.4358L10.7717 65.7777L11.0287 66.0931L11.2993 66.3875L11.5808 66.6808L11.5941 66.6931L11.8715 66.9484L11.8743 66.951L12.18 67.2097L12.5082 67.4561L12.805 67.6503H12.8065L12.816 67.6574L12.8453 67.6795L12.861 67.6913L13.2358 67.914L13.3363 67.9673L13.6356 68.1258L14.0474 68.3259L14.4914 68.5127L14.4938 68.5137H14.4937L14.8461 68.646L14.9638 68.6901L15.4168 68.8305L15.4564 68.8427H15.4565L15.9867 68.9841L16.5386 69.1015L17.1266 69.2074L17.3709 69.2425H17.372L17.3748 69.243L17.7402 69.3018L18.2693 69.3499L18.3853 69.3605H18.3854L18.71 69.3832L19.0562 69.4075H19.0563L19.7631 69.4311L20.4928 69.4193L21.2576 69.3841L22.0348 69.3369L22.8463 69.2546L23.6708 69.1368L24.5157 68.9959L24.5184 68.9954L24.5341 68.9922L24.5468 69.0019L24.5669 69.0171L24.5938 69.0373L24.726 69.1364H24.7268L24.7332 69.1419L24.7353 69.1434L24.7361 69.1439L24.7367 69.1446L24.7485 69.1545L25.0329 69.3692L25.0549 69.384H25.0558L25.0625 69.389L25.0639 69.39L25.0646 69.3906L25.0655 69.3911L25.1029 69.4193H25.1267V69.4372L25.1969 69.4903H25.1931L25.6943 69.8689L25.7018 69.8744L25.7154 69.8843L26.8566 70.7115L27.2977 71.0235L27.8701 71.4188L27.8709 71.4194L27.8716 71.4199L28.0231 71.5365L28.848 72.0788L28.8489 72.0794L29.2016 72.3263L29.2474 72.356L30.3923 73.0929H30.3921L30.4146 73.1068L30.7336 73.305L30.7338 73.3051L31.582 73.8353H31.5821L31.5885 73.8392L32.7841 74.5427L32.8114 74.5585L32.8993 74.6089H32.8983L33.9668 75.2271C33.9767 75.2252 33.9868 75.2278 33.9946 75.2338H34.1727L34.0524 75.2767L34.0528 75.2769L33.9809 75.3025L33.6507 75.4204H33.6505L33.6451 75.4224H33.645L33.4622 75.4865C33.203 75.5801 32.9447 75.6712 32.6871 75.7596L32.4482 75.845L32.4426 75.8469H32.4421L31.5748 76.1284L31.2568 76.2343L31.2557 76.2346L30.6161 76.4249H30.65L30.3827 76.4943L30.382 76.4946L30.3819 76.4945L30.1765 76.5478C29.8695 76.6349 29.5638 76.7178 29.2596 76.7974L29.2034 76.8128L29.2028 76.813L29.2025 76.8123H29.2024L29.2027 76.813L29.1323 76.8305C28.9228 76.8846 28.714 76.9369 28.5059 76.9874L28.3025 77.0383H28.3375L28.0267 77.1072L28.0238 77.108L28.0228 77.1082L27.816 77.1541L27.7046 77.1788L27.7045 77.1787V77.1788H27.7042L26.8671 77.3559L26.866 77.3562L26.5939 77.4048C26.3733 77.4474 26.1537 77.4882 25.9349 77.5267L25.7109 77.5684L25.7094 77.5686L25.5973 77.5846C25.3123 77.6321 25.0289 77.6761 24.747 77.7165L24.5665 77.7454L24.5656 77.7456H24.5648L24.4251 77.7611C24.2233 77.7883 24.0223 77.8136 23.8222 77.8371L23.4455 77.887L23.4445 77.8871L23.4434 77.8872L23.4239 77.8886L23.1917 77.9052C22.9658 77.9275 22.7409 77.9474 22.5173 77.9651L22.3356 77.9817H22.3349L21.9813 78.0052L21.9807 78.0053L21.7666 78.0156C21.6077 78.0245 21.4494 78.0323 21.2917 78.0387L21.2494 78.0408H21.2403L21.2351 78.0409C20.8921 78.0543 20.5521 78.062 20.2151 78.0639L20.1992 78.0642H20.1987V78.0643H20.1437C19.8512 78.0653 19.561 78.062 19.2731 78.0544L19.1133 78.0525V78.0524H19.1119L19.0023 78.0458C18.8307 78.0397 18.66 78.0321 18.4901 78.0229L18.0749 78.0053H18.0744L18.0726 78.0051L17.852 77.9818H17.8509L17.8493 77.9817L17.7224 77.9702C17.6043 77.9604 17.4866 77.9499 17.3693 77.9386L17.0619 77.911H17.0607L17.059 77.9108L16.8232 77.8871L16.8219 77.887V77.8869L16.0594 77.7814H16.0578L16.0552 77.781L15.8223 77.7458H15.8213L15.8183 77.7453L15.0875 77.6156V77.6155H15.0868L14.8509 77.5683L14.8505 77.5682L14.1314 77.4148L14.1305 77.4146L14.1297 77.4144L13.906 77.3555V77.3556L13.2104 77.1785L13.209 77.1782L13.1287 77.1541L12.9732 77.1076L12.9726 77.1074L12.9692 77.1063L12.7422 77.0383H12.7541L12.3063 76.8968H12.3046L12.2984 76.8943L12.0963 76.8156C11.968 76.7712 11.8406 76.7254 11.714 76.6786L11.4328 76.5782H11.4322L11.426 76.5758L11.2138 76.4933L11.2133 76.4931L10.5767 76.2335L10.575 76.2329L10.5735 76.232L10.3747 76.1268L9.76172 75.8438L9.76019 75.843L9.75865 75.8421L9.59847 75.748C9.49646 75.6953 9.39523 75.6415 9.29461 75.5871L8.97029 75.4184L8.96876 75.4175L8.7683 75.2997L8.76786 75.2994L8.20206 74.9575L8.20009 74.9562L7.90783 74.7521C7.81499 74.6901 7.72286 74.6272 7.63144 74.5635L7.47037 74.4616L7.46917 74.4608L7.46786 74.4599L6.77217 73.9292V73.9291L6.72534 73.8939L6.72446 73.8932L6.7237 73.8926L6.44588 73.6567C6.39567 73.6146 6.34578 73.5721 6.29609 73.5294L6.09891 73.362L6.09738 73.3607L6.01291 73.2806C5.88964 73.1697 5.768 73.0569 5.64811 72.9423L5.46122 72.7713L5.46023 72.7704L5.45936 72.7694L5.28834 72.5874C5.05296 72.348 4.82453 72.1011 4.60337 71.8467L4.37403 71.5894L4.37337 71.5886L4.37283 71.5879L4.27851 71.47L4.27818 71.4696L3.74761 70.7856L3.74553 70.7829L3.74399 70.7798L3.73261 70.7573L3.69027 70.6967C3.582 70.5473 3.47585 70.3957 3.37197 70.2419L3.2503 70.068H3.24931L3.24034 70.0538L3.23968 70.0529L3.23881 70.0517L3.15619 69.922L3.15598 69.9216L3.14843 69.9096L3.12173 69.8676H3.12238L2.88484 69.4851L2.88396 69.4837L2.8833 69.4822L2.88133 69.4783H2.88122L2.87149 69.4588L2.8623 69.4403C2.85477 69.4277 2.84714 69.4151 2.83965 69.4025L2.80474 69.359L2.80146 69.3549L2.79949 69.3499L2.78012 69.3016C2.77541 69.2935 2.7707 69.2854 2.76601 69.2774L2.75583 69.2621L2.75506 69.2608L2.75441 69.2596L2.7218 69.2011C2.7068 69.1751 2.69182 69.149 2.67694 69.1228L2.62518 69.0366L2.62453 69.0355L2.62387 69.0343L2.59827 68.983C2.56834 68.9294 2.53854 68.8755 2.50909 68.8214L2.46029 68.7421L2.45974 68.7411L2.45919 68.7403L2.37483 68.5819H2.3745L2.36783 68.5686L2.36499 68.5634L2.36444 68.5625V68.5624L2.35076 68.535H2.35065L2.3408 68.5154L2.27034 68.3738L2.2699 68.373L2.26859 68.3703L2.24473 68.3225H2.24605L2.21957 68.2662C2.17536 68.1777 2.13178 68.0886 2.08881 67.999L2.07951 67.9804H2.07918L2.07185 67.9652L2.06977 67.9609L2.04417 67.9098H2.04559L1.96429 67.7384L1.9423 67.7053L1.94033 67.7025L1.93989 67.7016L1.90586 67.6503H1.91888L1.85673 67.4991L1.77992 67.3199C1.76907 67.2948 1.75808 67.2696 1.74731 67.2443L1.63242 66.9915L1.63199 66.9901L1.58537 66.862L1.53559 66.7421H1.53417L1.52574 66.7188L1.52487 66.7165L1.50615 66.6714H1.50867L1.41971 66.4239L1.40691 66.3883C1.37318 66.2974 1.33991 66.2059 1.30734 66.1139L1.25537 65.9893L1.25449 65.9868L1.1954 65.81L1.19519 65.8092L1.08905 65.4673V65.4671L0.971532 65.114L0.969672 65.1086V65.0838L0.933017 64.9464C0.88989 64.7969 0.848087 64.6462 0.807841 64.4943L0.758822 64.3223L0.758493 64.3211L0.734968 64.2269L0.73464 64.2258V64.2257L0.710458 64.1124C0.656405 63.8924 0.605515 63.6709 0.557819 63.4477L0.523133 63.3321L0.522476 63.3298L0.522148 63.3276L0.481882 63.0781C0.440774 62.8691 0.402438 62.6587 0.366773 62.4471L0.357582 62.4105L0.34664 62.3666H0.351126L0.334275 62.2487C0.307317 62.0802 0.282003 61.9108 0.258448 61.7406L0.215556 61.476L0.215337 61.4747L0.215227 61.4732L0.20341 61.3323L0.194985 61.2464C0.151697 60.8802 0.116172 60.5105 0.0881918 60.1375H0.0875353L0.0854563 60.1045L0.0838151 60.0785C0.0720099 59.9164 0.0615697 59.7535 0.0526306 59.5901L0.050114 59.5502L0.0500045 59.549V59.5394C0.0328932 59.2157 0.0214942 58.8896 0.0155375 58.5612L0.0146622 58.5474V58.5198C-0.0065316 57.2515 0.0549494 55.9496 0.196407 54.6212L0.215227 54.4144L0.215446 54.4124L0.232516 54.2973C0.267351 53.9966 0.306241 53.6945 0.349156 53.3913H0.348828L0.349704 53.3865C0.398438 53.0424 0.452489 52.6967 0.511534 52.3496L0.521929 52.2666L0.522039 52.2656L0.522258 52.2645L0.591082 51.8987C0.61784 51.7518 0.645669 51.6047 0.674241 51.4573L0.675444 51.4507L0.675663 51.4497C0.838995 50.608 1.03182 49.7581 1.25351 48.9018L1.25372 48.9007L1.25405 48.8996C1.55211 47.7484 1.90212 46.5855 2.30284 45.4146L2.31268 45.3834H2.31006L2.32756 45.3358L2.33489 45.3127H2.3361L2.37035 45.219C2.62555 44.4831 2.90065 43.7442 3.19526 43.0032L3.22382 42.9294L3.22469 42.9272L3.22994 42.9158C3.28571 42.7763 3.34207 42.6365 3.39921 42.4968C6.63653 34.5822 12.0843 26.4527 19.2678 19.2667L19.6053 18.9311C19.7255 18.8122 19.8461 18.6939 19.9669 18.576H19.9595L20.0119 18.5322C23.9367 14.7053 28.1266 11.3925 32.3976 8.66901H32.3103L32.4911 8.60925C32.8756 8.36493 33.2609 8.12558 33.6465 7.89087H33.6433L33.6621 7.88135C34.0598 7.63944 34.4581 7.40275 34.8568 7.17119H34.8562L34.8603 7.16911C37.4006 5.69363 39.9568 4.42906 42.4912 3.3916C43.5792 2.9462 44.6634 2.54289 45.7404 2.18231H45.7403L45.7414 2.18187ZM52.4777 13.6107C52.4887 13.5996 52.5054 13.5969 52.519 13.6039L52.525 13.6079L52.8674 13.8863C67.3263 25.7139 77.2043 42.3282 78.0112 56.2345L78.0286 56.562C78.1185 58.438 78.0387 60.215 77.7992 61.883H77.8012L77.7963 61.902C77.66 62.8464 77.4724 63.7559 77.2351 64.6287L77.2346 64.6311H77.2466L77.2236 64.6776L77.2234 64.6786L77.2216 64.6823L77.2191 64.6871C76.8039 66.1973 76.2398 67.5971 75.5359 68.8773L75.5245 68.9029L75.5229 68.9066L75.5205 68.9098L75.5109 68.9226C75.4359 69.0581 75.3593 69.1923 75.2811 69.3251H75.2839L75.2528 69.3763L75.2445 69.396H75.2411L75.2316 69.4117L75.227 69.4193H75.2464L75.2463 69.4195H75.2479L75.1918 69.4751C75.0926 69.6398 74.9909 69.8024 74.8869 69.9629L74.8383 70.0399L74.8379 70.0406L74.8378 70.0405L74.5785 70.4296L74.578 70.4305L74.5773 70.4313L74.4962 70.5394C74.3864 70.6945 74.2742 70.8474 74.1597 70.9981L74.059 71.1383L74.0584 71.1393L74.0576 71.1401L73.8638 71.3761C73.7697 71.4928 73.674 71.6079 73.5769 71.7218L73.4916 71.8245L73.491 71.8251L73.4904 71.8258L73.4444 71.8755C73.2981 72.043 73.1486 72.2074 72.9958 72.3686L72.9013 72.4741L72.6047 72.7707L72.2745 73.0891L72.2735 73.0901L72.1165 73.2296C71.8626 73.4603 71.6014 73.6834 71.3327 73.8986L71.2821 73.9402L71.2818 73.9404L70.9281 74.2236L70.9272 74.2242L70.9262 74.2249L70.5907 74.4599C70.3882 74.6044 70.182 74.7446 69.9721 74.8809L69.8411 74.9683L69.8405 74.9687L69.4514 75.2164L69.4505 75.2169L69.4497 75.2173L69.0725 75.4298L69.0719 75.43L68.9052 75.5204C68.8301 75.5619 68.7546 75.6029 68.6787 75.6434L68.6593 75.654L68.6586 75.6543L68.6474 75.66C68.5033 75.7365 68.3579 75.8113 68.2109 75.8843L67.8448 76.0675L67.8433 76.0682L67.4423 76.245L67.4421 76.2452L67.0059 76.4339L67.0047 76.4344L66.5802 76.5995L66.5797 76.5997L66.5376 76.6151C66.406 76.6652 66.2734 76.7141 66.1398 76.7617L66.1316 76.7647L66.1303 76.7653L66.1238 76.7674C65.8669 76.8587 65.6062 76.9453 65.342 77.0272L65.2466 77.06L65.2458 77.0602L65.2448 77.0605L65.0635 77.1115C64.905 77.1582 64.7452 77.2033 64.5842 77.2467L64.3252 77.3199L64.3235 77.3204L64.1265 77.3646C63.9579 77.4061 63.788 77.4459 63.6167 77.4838L63.369 77.5443L63.3678 77.5446L63.3665 77.5449L63.2113 77.5713L63.1503 77.5817C62.9408 77.6235 62.7294 77.6626 62.5162 77.699L62.4005 77.7216L62.3989 77.7219L62.399 77.722H62.3986L62.3972 77.7223H62.3967L62.2391 77.7447C61.9966 77.7832 61.7518 77.8181 61.5046 77.8497L61.4085 77.8635L61.406 77.8638H61.4045L61.2352 77.8826C61.1514 77.8924 61.0674 77.9018 60.9831 77.9108L60.877 77.9226H60.8765L60.393 77.9698L60.3918 77.9699L60.2314 77.9798C60.0336 77.9952 59.8343 78.0085 59.6338 78.0196L59.3546 78.0407L59.3533 78.0408H59.3465L59.039 78.0462C58.831 78.0532 58.6216 78.0581 58.4108 78.0606L58.2922 78.0642L58.2907 78.0643V78.0642L58.1523 78.0627C57.874 78.0637 57.5934 78.0604 57.3103 78.0535L57.2178 78.0525H57.2171L56.82 78.0408H56.8156L56.1242 78.0055H56.1204L56.1191 78.0053L55.8065 77.9812C55.7122 77.9744 55.6178 77.9674 55.5232 77.9598L55.011 77.9227H55.0101L55.0093 77.9226L54.6539 77.8791C54.4682 77.8596 54.2822 77.8383 54.0957 77.8157L53.8896 77.7928L53.8886 77.7927V77.7926L53.599 77.7522C53.554 77.7461 53.5091 77.7396 53.464 77.7333L53.3818 77.722H53.3815L53.3589 77.7186C53.2011 77.6961 53.0429 77.6728 52.8846 77.6482L52.7486 77.628H52.7471L52.7444 77.6276L52.2256 77.5449L52.2248 77.5447L51.5882 77.4269L51.5875 77.4268L51.3108 77.3701C51.1601 77.3403 51.0092 77.3099 50.8581 77.2783L50.4204 77.1908L50.419 77.1904L50.0611 77.103C49.8307 77.05 49.5998 76.995 49.3686 76.9378L49.2403 76.9075L49.2395 76.9073L49.0442 76.8563C48.906 76.821 48.7677 76.785 48.6293 76.7482L48.0605 76.6008L48.0593 76.6005V76.6003L47.5054 76.4353V76.4354L46.8571 76.2467L46.8562 76.2464L46.3076 76.0712H46.3071L46.3017 76.0695L46.2833 76.0635L46.086 76.0004H46.0908L45.6534 75.8571L45.6523 75.8568L45.3621 75.7517C45.1829 75.6901 45.0036 75.6271 44.8242 75.5631L44.4386 75.4324L44.4373 75.432V75.4319L43.8835 75.2195V75.2196L43.2233 74.9719L43.2221 74.9715L42.7277 74.7655C42.6551 74.7361 42.5823 74.7068 42.5097 74.6771L42.0081 74.4764L42.0071 74.476L41.4415 74.2284L40.7813 73.9453L40.78 73.9448L40.4226 73.7735C40.2733 73.7053 40.124 73.6363 39.9746 73.5666L39.5547 73.379L39.5533 73.3784V73.3783L38.9872 73.0954V73.0953L38.3276 72.7771L38.3266 72.7766L37.7607 72.4819V72.4818L37.1005 72.1398L37.1 72.1395L36.5341 71.8329H36.534L35.8934 71.4833H35.893L35.8849 71.4787L35.8801 71.476L35.764 71.4126H35.7693L35.3155 71.1531H35.3151L35.3069 71.1482L35.2992 71.1437L35.1918 71.0823H35.1937L34.6586 70.7709L34.1009 70.4454H34.1006L34.0922 70.4404L34.0861 70.4368L33.9798 70.3747H33.9827L33.4433 70.0509L32.8861 69.7025H32.8858L32.8772 69.697L32.847 69.678L32.773 69.6317H32.7735L32.559 69.4964L32.5557 69.4943L32.5528 69.4916L32.5443 69.483L32.5301 69.4745L32.4888 69.4498L32.4883 69.4494L32.4031 69.396H32.4024L32.3938 69.3904L32.2641 69.3077L32.2635 69.3074L32.2458 69.2955L32.228 69.2836L32.0865 69.1893V69.1892L31.8866 69.0599L31.8862 69.0597L31.8771 69.0536L31.7863 68.9948H31.7889L31.7259 68.9527C31.6785 68.9218 31.6312 68.8907 31.5839 68.8596L31.3444 68.7062L31.3439 68.7059L31.0256 68.4934L31.0226 68.4916L31.0105 68.4794L30.8542 68.3736C30.7642 68.3129 30.6743 68.252 30.5844 68.1908L30.2561 67.9687H30.2559L30.2469 67.9626L30.234 67.9537L30.1518 67.898H30.1528L29.8343 67.6795V67.6794L29.8083 67.6621H29.8076L29.7983 67.6554L29.7023 67.5914H29.71L29.4358 67.3925C29.2103 67.2327 28.9852 67.0713 28.7607 66.9084L28.644 66.8306L28.6432 66.83L28.6425 66.8296L28.2771 66.5582L28.277 66.5581L27.7109 66.1336V66.1335L27.4641 65.9572L27.4634 65.9566L27.4627 65.9561L27.1207 65.6849V65.6847L26.5082 65.2134L26.5072 65.2128L26.4034 65.1272C26.2379 64.997 26.0725 64.8663 25.9076 64.7345L25.8712 64.706L25.8708 64.7058L25.2107 64.1751L25.1517 64.1279L25.1513 64.1275L25.0732 64.065H25.0757L24.5382 63.6205L24.5379 63.6203L24.0075 63.172H24.0074L23.8542 63.0423L23.8537 63.0419L23.5069 62.7362C23.3668 62.6147 23.2269 62.4927 23.0873 62.3701L22.8876 62.2052L22.887 62.2045L22.8862 62.204L22.5011 61.8499C22.4134 61.7714 22.3258 61.6927 22.2385 61.6137L21.7783 61.2018L21.7181 61.1415V61.1414L21.5048 60.9421C21.1242 60.5895 20.7462 60.2325 20.3711 59.8711L20.2686 59.7742L20.2681 59.7737L20.1355 59.6433C19.7058 59.226 19.2799 58.803 18.8579 58.3746L18.5579 58.0745L18.0392 57.532L17.5427 57.0122H17.5425L17.532 57.0012L17.2963 56.7535L17.2959 56.753L16.554 55.9403L16.5188 55.9049L16.518 55.9041L16.5174 55.9034L16.1792 55.5192C16.0003 55.319 15.8223 55.1177 15.6453 54.9155L15.5271 54.783L15.5267 54.7826L15.0905 54.2756L15.0903 54.2754L15.0507 54.2288C14.92 54.0759 14.7898 53.9225 14.6601 53.7686L14.5597 53.6503L14.5103 53.592H14.5104L14.3594 53.4144L14.3591 53.4141L13.6506 52.5543H13.6483L13.6378 52.5385L13.614 52.5029L13.6052 52.4897L13.6093 52.4742L13.7508 51.9436L13.8334 51.613L13.8924 51.4007L13.8926 51.4L14.0577 50.8457L14.0578 50.8451L14.2314 50.3014L14.2348 50.2907V50.2904L14.2388 50.278L14.3848 49.8297H14.3843L14.3845 49.8295H14.3843L14.3999 49.783L14.4206 49.7212L14.4234 49.7125V49.7124L14.612 49.1463L14.6124 49.1455L14.8245 48.5559L15.06 47.967L15.0713 47.9223L15.0718 47.9198L15.0728 47.9174L15.2968 47.3749L15.4617 46.9626L15.462 46.9615L15.4661 46.9633H15.4662L15.4621 46.9615L15.5445 46.7729L15.804 46.1714L15.8746 46.0065L15.8752 46.0052L16.0873 45.557L16.0893 45.5528L16.3004 45.0886H16.2979L16.3235 45.0373L16.355 44.9745L16.3706 44.943L16.3805 44.9235L16.8094 44.0653L16.9837 43.7165L16.984 43.7157L17.3143 43.0906L17.3411 43.0399L17.3742 43.0867L17.3743 43.0869H17.3744L17.3771 43.0906L18.0665 44.0611L18.0696 44.0652H18.0695L18.0696 44.0653L18.7764 45.0316L19.1772 45.5505L19.1773 45.5507L19.5088 45.985L19.5193 45.9987H19.5192L20.2732 46.9533L21.0511 47.9084L21.8403 48.851L22.3124 49.3849L22.5946 49.7L22.5954 49.7009L22.6544 49.7716L22.6553 49.7728L23.4786 50.6904L24.3268 51.5979H24.3269L24.645 51.9279L25.1637 52.4586L25.166 52.461L25.1678 52.4637L25.1895 52.4961L26.0706 53.3659L26.3181 53.6018L26.3184 53.6019L26.9663 54.2267L26.9737 54.2336L27.867 55.0575L27.8738 55.0636H27.8736L28.793 55.8888L28.7942 55.8898L28.8751 55.9509H28.864L29.7235 56.7018L30.6568 57.4722L30.6664 57.48L31.6214 58.2465H31.6213L32.5778 58.9818H32.5785L32.5882 58.9895L32.5949 58.9949L33.5528 59.7194L34.1306 60.1203L34.1314 60.1209H34.1313L34.5313 60.4151L35.5098 61.0873H35.5097L36.4882 61.7476H36.4881L37.4771 62.3719H37.4773L38.4671 62.985L38.7019 63.114L38.703 63.1146H38.7029L38.8223 63.1803H38.8135L39.4565 63.5624H39.4566L40.3645 64.0695L40.3648 64.0696L40.4473 64.1169H40.4472L41.436 64.6468L42.108 64.9888L42.1087 64.9892L42.4103 65.1516L42.4149 65.154H42.4148L43.392 65.6251L44.3581 66.073L45.324 66.4971L45.3346 66.5014L46.2877 66.8851L46.2901 66.886H46.2902L47.2333 67.2516H47.2332L47.4214 67.3199L48.1746 67.593H48.1747L49.1052 67.8995L50.0123 68.1705H50.0124L50.9077 68.418L50.9133 68.4194L50.9547 68.4298H50.9548L51.7906 68.6419L52.6631 68.8306H52.663L53.5073 68.9948L53.51 68.9952L54.3346 69.1248L55.0183 69.2193L55.0199 69.2194L55.0198 69.2195H55.0199L55.1489 69.2429L55.924 69.3251L56.6904 69.3841H56.6903L56.7204 69.3855L57.4321 69.4195H57.432L58.1436 69.4312H58.1488L58.8446 69.4193H58.8494L59.5022 69.3841L60.149 69.3253L60.7494 69.243V69.2429L61.0761 69.1896L61.3255 69.1488L61.8784 69.0312L62.3971 68.9015L62.3992 68.9008L62.9014 68.7489L63.2693 68.6263L63.3606 68.5958L63.806 68.42L64.2306 68.2313L64.6284 68.0322L65.0048 67.8203L65.3562 67.598L65.5335 67.4712L65.6862 67.3621L65.7413 67.318L65.783 67.2846H65.7775L65.8623 67.221L66.0017 67.1166L66.0021 67.1162L66.2956 66.8578L66.5779 66.5873L66.5797 66.5855L66.8484 66.305L67.1068 66.0113L67.3531 65.6944L67.588 65.3653L67.8101 65.0143L68.0224 64.6487L68.2209 64.2515L68.3974 63.8397L68.5737 63.3928L68.7387 62.9211V62.9208L68.8796 62.4277L69.0205 61.9111L69.0394 61.8123L69.1264 61.3574L69.1853 61.0045L69.1855 61.0033L69.2323 60.7687L69.3029 60.1571L69.3032 60.1536L69.3617 59.5217L69.4087 58.8628L69.4205 58.1804L69.4088 57.4615L69.3853 56.7202L69.3852 56.7185H69.3851L69.3291 56.0217H69.3264V55.9891L69.3263 55.9876V55.9651L69.3017 55.7294L69.2439 55.177L69.2433 55.1724L69.2087 54.9418L69.1386 54.3805L69.138 54.376L69.1362 54.3645L68.9968 53.5398L68.8319 52.6914L68.6439 51.8332L68.6437 51.8322L68.6084 51.7025L68.6082 51.7018L68.4196 50.9475L68.4153 50.9315L68.1741 50.0472L68.1721 50.0397V50.0396L67.9017 49.1339L67.9015 49.1333L67.6421 48.3549L67.6419 48.3541L67.5953 48.2025L67.262 47.2943H67.26L67.253 47.27L66.9 46.3164L66.7709 46.0227L66.7704 46.0214L66.5128 45.3656L66.5111 45.3613V45.3612L66.0873 44.3957L66.0872 44.3956L65.6397 43.4175L65.6396 43.4174L65.1896 42.4941H65.1858L65.1778 42.4697L65.167 42.4366L64.6744 41.4625L64.5682 41.2856L64.5677 41.2846L64.5672 41.2837L64.1435 40.4712L63.9196 40.0821L63.9192 40.0815L63.924 40.0788L63.9193 40.0814L63.5897 39.4811L63.5653 39.4405L63.0003 38.5024V38.5025L62.989 38.484L62.5156 37.7174H62.5148L62.5052 37.7006L62.472 37.6467H62.475L62.3995 37.5124L61.765 36.525L61.7559 36.5158L61.7534 36.5134L61.7516 36.5106L61.1033 35.5437L60.4319 34.5657L60.1136 34.1293L60.1133 34.1291L59.7284 33.5922L59.7244 33.5866V33.5865L59.2414 32.9385L59.2413 32.9384L59.0059 32.6206L58.2517 31.6538V31.6539L57.4959 30.7118H57.4958L57.4922 30.7072L57.4856 30.699L56.7081 29.756L56.7058 29.7534L56.4362 29.45H56.4354L56.4248 29.4374L56.4211 29.433L56.3733 29.3791H56.3756L55.9106 28.8293L55.9063 28.8243V28.8242L55.9023 28.8198L55.0819 27.9053V27.9054L54.3745 27.1387L54.3734 27.1375L54.2438 26.9843H54.2437L53.3847 26.0896V26.0895L53.3027 26.0074L53.3024 26.0073L52.5131 25.2058L51.6339 24.3498L51.629 24.3451L51.0395 23.7789L50.7339 23.4849L49.8599 22.7039H49.8587L49.8484 22.6935L49.8135 22.6586L48.8834 21.8342L48.8784 21.8298L47.9528 21.0447L47.9527 21.0446V21.0447L47.9405 21.0345L47.0007 20.2686L46.998 20.2665V20.2664L46.9978 20.2663V20.2662L46.0439 19.5123L45.0771 18.7811L45.0674 18.7737L44.1105 18.0617V18.0616L43.2746 17.4847L43.2734 17.4838L43.136 17.3806L43.1328 17.3784L43.0859 17.3455L43.0878 17.3443L43.1364 17.3182L43.7495 16.9879L43.7501 16.9876L44.3749 16.6692L44.7128 16.5002H44.686L44.8478 16.4327L44.849 16.4321L44.9893 16.3737L45.602 16.0791L45.6027 16.0788L46.2039 15.8075L46.8052 15.5362L46.8063 15.5358L47.4045 15.2893L47.4076 15.2881L47.9968 15.0405L47.9978 15.0401L48.5754 14.8162L48.576 14.816L48.9668 14.6722H48.9368L49.1513 14.6043L49.1537 14.6035L49.1544 14.6033L49.7321 14.4029L49.7331 14.4024L50.2989 14.2257L50.8529 14.0488L50.8542 14.0483L51.4083 13.8951L51.9505 13.7417L51.9513 13.7415L51.9517 13.7414L52.4582 13.6118L52.4625 13.6107H52.4777ZM60.751 43.0907L61.0812 43.7158L61.0814 43.7163L61.3996 44.3413L61.3997 44.3414L61.4001 44.3422L61.6948 44.9554L61.695 44.9559L61.9752 45.5633L61.9824 45.5705L62.0434 45.6309H62.0127L62.2609 46.1707L62.2612 46.1714L62.5207 46.7729L62.78 47.3744L62.7804 47.3755L63.0074 47.9545H63.0108L63.0168 47.9787L63.2404 48.555L63.2408 48.5558L63.4529 49.1455L63.4532 49.1463H63.4531V49.1464H63.4532L63.4563 49.1557L63.6535 49.7238L63.6536 49.7241L63.8422 50.2903L63.8776 50.3964L63.8778 50.397L64.0149 50.8316L64.0189 50.8446L64.0192 50.8452L64.0196 50.8464L64.1727 51.4L64.2197 51.553L64.2201 51.5541L64.3261 51.9433L64.3264 51.9444L64.4505 52.4638C64.4613 52.4737 64.4646 52.4889 64.4597 52.5021L64.46 52.5035L64.4583 52.5056C64.4571 52.5078 64.4558 52.51 64.4542 52.512C64.4473 52.5205 64.4403 52.5291 64.4334 52.5376L64.2845 52.7292L64.2837 52.7302L63.9264 53.1578C63.2379 53.9914 62.5309 54.8128 61.8065 55.6205L61.713 55.7265L61.7122 55.7275L61.7113 55.7266H61.7112L61.7121 55.7275L61.6827 55.7581C61.1158 56.3873 60.5384 57.0082 59.9512 57.6201L59.7904 57.7912L59.7898 57.7919L59.6663 57.9154C58.3964 59.2252 57.0815 60.493 55.7279 61.7121L55.7259 61.7163L55.7207 61.7209L55.5507 61.8713C55.3342 62.0652 55.1166 62.2578 54.8982 62.4492L54.8014 62.5342L54.8015 62.5343L54.7395 62.5907H54.7502L54.6719 62.6522L54.6617 62.6614H54.6602L54.602 62.7072C54.3715 62.9071 54.1398 63.1056 53.9072 63.3027L53.7161 63.4668L53.7153 63.4676L53.714 63.466L53.7152 63.4676L53.6532 63.517C53.2783 63.8321 52.9008 64.1435 52.5209 64.4508L52.5145 64.4566L52.5002 64.4697L52.5001 64.4695V64.4697L52.4815 64.4647L52.4812 64.4646V64.4647L52.4658 64.4605L51.9549 64.3243L51.9512 64.3233L51.9511 64.3232V64.3233L51.4087 64.1818L51.4082 64.1816V64.1814L50.8542 64.0283L50.8529 64.0279L50.2987 63.851L50.2982 63.8509L49.9211 63.725L49.7326 63.6622V63.6623L49.155 63.4736L49.1537 63.4731L48.5761 63.2607L48.5756 63.2606L47.9862 63.0365L47.985 63.0361L47.4021 62.7911L47.3959 62.7886L47.084 62.6614H47.0834L47.0771 62.6587L47.0768 62.6586L46.8079 62.5415L46.806 62.5408V62.5407L46.8056 62.5406V62.5405L46.2113 62.2841H46.2108L46.2044 62.2811L46.2035 62.2808L45.5906 61.9978L45.5904 61.9976L45.59 61.9974V61.9975L45.5861 61.9957L45.0198 61.7298H45.0171L45.0107 61.7255L45.0102 61.7253L45.008 61.7238L44.9903 61.712L44.9747 61.7015L44.364 61.4079L44.363 61.4073L43.7498 61.0889L43.1369 60.7704L43.118 60.7607L43.1178 60.7394L43.1177 60.7276L43.1176 60.7092L43.1326 60.6986L44.2805 59.8782H44.2792L44.3483 59.8296L44.3704 59.814L45.5727 58.9206L45.6078 58.8945L45.6102 58.8925L45.6109 58.8921L46.8328 57.94L48.0466 56.9497L49.2372 55.9239L50.4149 54.8754L50.6859 54.6161L50.686 54.6159L50.6871 54.617L50.6861 54.6159L51.5584 53.7904L51.745 53.6037H51.7434L51.7979 53.5507L51.8053 53.5434L51.8156 53.533H51.8162L52.6547 52.7165L52.6898 52.6821L53.3623 51.9879H53.3621L53.4202 51.9281L53.4303 51.9173H53.4306L53.7974 51.5388L53.9384 51.3861L54.4451 50.8319L54.4455 50.8315L54.8701 50.3833L55.9179 49.2055L55.9767 49.1349L55.9772 49.1345L56.4841 48.5447L56.4842 48.5446L56.9341 48.0253H56.9322L56.9784 47.9677L56.9883 47.9545H56.989L57.4618 47.3663L57.4622 47.3657L57.9335 46.8001L57.9552 46.7673L57.9559 46.7662L57.9568 46.7651L58.4284 46.1637L58.8548 45.6167L58.8881 45.5739L59.8066 44.3369L60.691 43.0868L60.7241 43.0398L60.751 43.0907ZM14.3234 0.616398C18.7109 -0.385587 23.8574 -0.165189 29.4179 1.30675L29.5289 1.33335H29.518C30.8933 1.70079 32.2938 2.14448 33.7141 2.66523L33.9936 2.76856L33.9999 2.77174C34.0054 2.7752 34.0097 2.78015 34.0125 2.78575L34.053 2.80042L34.0048 2.82767C34.0009 2.83123 33.9963 2.83382 33.9913 2.83533L33.9863 2.83829L32.9871 3.40659L32.7783 3.52558L31.5821 4.2411L31.5822 4.24121L30.903 4.65409L30.0029 5.21955L30.0031 5.21966L29.5433 5.51454L29.5432 5.51443L29.0592 5.82573L28.5634 6.15815L28.082 6.48116L28.0819 6.48105L27.1887 7.10431L27.1796 7.11361L27.1774 7.1158L27.175 7.11744L26.5084 7.58866L26.3848 7.67831H26.387L26.3594 7.69658L25.7489 8.13901L25.6312 8.22571L25.419 8.38606H25.424L25.338 8.44845L25.3381 8.44856L25.3282 8.45677H25.3268L25.2912 8.48249L25.0912 8.63366V8.64362L25.0719 8.65336L25.0519 8.66321L24.9984 8.70371L24.9535 8.73983H24.9722L24.877 8.80332L24.8682 8.81065H24.8662L24.8485 8.82236L24.7874 8.86319L24.5936 9.00953L24.5489 9.04927L24.5367 9.0601L24.5312 9.05934L24.5178 9.06612L24.5081 9.07105L24.4975 9.06963L24.4974 9.06952V9.06963L24.4428 9.06284L24.4031 9.05791L24.4022 9.05781L24.4012 9.05759L23.8726 8.96367L23.872 8.96356V8.96345L23.5715 8.92219L23.2716 8.88103V8.88114L22.6703 8.81043V8.81032L22.0836 8.75165H22.0834L22.082 8.75154L21.5188 8.70458H21.5179L21.5168 8.70447L21.2424 8.68718L20.9509 8.66901V8.6689L20.41 8.65719H20.1034L20.1025 8.65708L19.8816 8.64548L19.7781 8.65697L19.7761 8.65719H19.3631L18.8571 8.68061L18.8572 8.68072L18.3618 8.7163L18.3606 8.71641H18.3595L17.8918 8.76314L17.4335 8.82181L17.4336 8.82192L16.9975 8.89263L16.9976 8.89274L16.5751 8.96301L16.5752 8.96312L16.2097 9.04642L16.1626 9.05726L15.7741 9.15161L15.4048 9.25538L15.3981 9.25724L15.3982 9.25735L15.2125 9.3112L15.0329 9.36341L14.6939 9.4802L14.694 9.48031L14.3652 9.60936L14.3653 9.60947L14.0469 9.751L13.741 9.89231L13.448 10.0446L13.4482 10.0447L13.166 10.1974L12.8964 10.3617L12.6378 10.5381L12.6371 10.5384L12.3945 10.7118L12.3923 10.7134L12.3924 10.7135L12.191 10.8745L11.9214 11.0903L11.5004 11.4881L11.4993 11.4893L11.4992 11.4892L11.1005 11.9116L10.7237 12.3827L10.548 12.6288L10.3729 12.8852L10.2911 13.0378L10.2907 13.0386L10.2902 13.0392L10.2239 13.1492L10.2199 13.1564L10.2196 13.1568L10.0554 13.4383L9.90298 13.7317L9.85363 13.8466H9.85691L9.8335 13.8938L9.83251 13.896L9.83207 13.8968L9.83164 13.8978L9.76161 14.0378L9.63249 14.3548L9.6326 14.3549L9.50349 14.6834L9.47603 14.7657L9.46826 14.7894L9.46815 14.7892V14.7895L9.46771 14.7909L9.37372 15.0375L9.26813 15.4009L9.26824 15.401H9.26813L9.26824 15.4011L9.26266 15.421L9.18574 15.696V15.6961L9.1621 15.7783L9.16221 15.7784L9.05629 16.1665L8.98254 16.5355H8.98419L8.97554 16.571L8.97412 16.5775L8.97423 16.5776L8.89392 17.001L8.89162 17.0137L8.82115 17.461L8.81513 17.521L8.80966 17.5768L8.80649 17.6087H8.80507L8.76217 17.9087L8.71534 18.3888L8.71545 18.3889L8.71534 18.3906L8.71545 18.5406V18.5418L8.71534 18.5431L8.69171 18.8724L8.69182 18.8725L8.66829 19.3795L8.66818 19.3806L8.65648 19.8977V20.4269L8.66829 20.9809L8.70156 21.5009H8.70364V21.5334L8.74434 22.0348L8.75069 22.1106L8.79785 22.5823V22.5824L8.8089 22.6934L8.80955 22.7002L8.88013 23.2881L8.97434 23.9009L9.08037 24.526L9.08288 24.5408L9.07402 24.5528L8.94436 24.7297L8.94403 24.7301L8.21202 25.6947L8.20173 25.7084L7.36467 26.8641L7.36456 26.8642L6.55256 28.0295L6.54425 28.0464H6.54129L5.91509 28.9743L5.91476 28.9748L5.75337 29.2053L5.75008 29.2104L5.74078 29.2245L5.26711 29.9644L5.26678 29.965L5.26667 29.9648L4.98459 30.3882L4.9847 30.3883L4.63084 30.9662L4.63062 30.9667L4.24218 31.5789L4.24229 31.579L4.23857 31.5853L4.01842 31.9678L4.0182 31.9683L3.53905 32.7744L3.535 32.7814L3.42909 32.97V32.9701L3.02817 33.6778L3.02807 33.678L2.85737 33.9738C2.85584 33.9811 2.85205 33.9877 2.84643 33.9928L2.81415 34.0488L2.78756 33.9797L2.66972 33.673L2.66928 33.672L2.42199 32.9651L2.3512 32.7764L2.35076 32.7751L2.07973 31.9614L2.0794 31.9604L2.00489 31.7143C1.9715 31.61 1.93851 31.5058 1.90597 31.4018L1.76121 30.9587L1.76088 30.9574L1.59577 30.3796V30.3793L1.47792 29.9549L1.26565 29.2L1.26532 29.199V29.1989L1.20646 28.9631L1.20635 28.9627L0.982584 28.0197L0.970657 27.9725L0.970329 27.9713L0.73464 26.8744L0.733874 26.8708V26.8466L0.726543 26.8081C0.675731 26.5525 0.627716 26.2979 0.582438 26.0445L0.534403 25.7906L0.510878 25.6962L0.51055 25.6947L0.510331 25.6931L0.357035 24.7143L0.356816 24.7127L0.356706 24.7112L0.346093 24.5542C0.319952 24.3647 0.29551 24.1758 0.272563 23.9877L0.262606 23.9114L0.231312 23.6709H0.230327L0.227045 23.6393L0.226607 23.6351L0.222011 23.6002H0.222996L0.191702 23.2971V23.297L0.136008 22.7391H0.13568L0.132507 22.7072L0.124191 22.6213H0.12244L0.120799 22.5877L0.120689 22.5858L0.117297 22.5505H0.118939L0.10176 22.2092C0.0878205 22.0089 0.0758056 21.8094 0.0656515 21.6109L0.0625877 21.5635L0 21.5009H0.049348L0.0382967 20.9829L0.0264794 20.5347L0.02637 20.5338H0.0264794V20.3527C0.0241823 20.1388 0.0242197 19.926 0.0264794 19.7144V19.3771L0.0265888 19.3762L0.0266983 19.3743L0.0400474 19.0865C0.0451986 18.9277 0.0514256 18.7695 0.0591958 18.6121L0.0618218 18.5406L0.0617124 18.3874V18.386L0.0618218 18.3847L0.0972736 17.9011L0.118173 17.6087H0.117188L0.12058 17.5745L0.120908 17.5709L0.121018 17.5699L0.132725 17.452V17.4518L0.179885 17.0036V17.003L0.226935 16.6157V16.5679L0.227482 16.565L0.28252 16.2434C0.29151 16.1798 0.300744 16.1162 0.310203 16.0528L0.340403 15.8043H0.339418L0.345217 15.764L0.345327 15.7638L0.356925 15.6814L0.357035 15.6805L0.357253 15.6795L0.41623 15.3846L0.486915 15.0192L0.534075 14.7716L0.534294 14.7706L0.557709 14.6648L0.628503 14.3346L0.628613 14.3343L0.689778 14.0588H0.688246L0.699298 14.0148L0.734859 13.8734L0.735187 13.8723L0.782347 13.7071L0.803574 13.6313C0.832451 13.521 0.861946 13.411 0.892422 13.3017L0.924373 13.1743H0.921856L0.935643 13.1287L0.941989 13.1036H0.943193L0.971204 13.0108V13.0107L1.00425 12.9031H1.00392L1.01683 12.862L1.01825 12.8573L1.02591 12.8324H1.02635L1.10098 12.5975L1.10108 12.597L1.12603 12.5219C1.14713 12.4563 1.16867 12.3908 1.19037 12.3256L1.23031 12.1858L1.23064 12.1848L1.23097 12.1839L1.33699 11.8772L1.33743 11.876L1.34487 11.8789L1.33754 11.876L1.502 11.4529L1.52563 11.3823L1.52607 11.3809L1.52662 11.3796L1.59522 11.2194C1.65556 11.0686 1.71744 10.9189 1.78123 10.7706L1.82052 10.674L1.84404 10.6038L1.84503 10.6007L1.84667 10.5979L1.89798 10.5051C1.90322 10.4934 1.90859 10.4817 1.91385 10.47L1.95499 10.3674H1.94985L1.97545 10.3162L1.98322 10.2967H1.9853L2.05752 10.1521L2.1282 9.99882V9.99871L2.1758 9.8956H2.16923L2.20042 9.8424L2.27625 9.71258C2.29314 9.67927 2.31004 9.64593 2.32713 9.61276L2.35273 9.56142L2.36247 9.54183H2.36345L2.3803 9.51074C2.40261 9.4681 2.42508 9.42553 2.44771 9.38311L2.48239 9.31372L2.4825 9.31361L2.49224 9.29424H2.49333L2.54137 9.20754L2.58864 9.11319L2.59115 9.10816L2.59509 9.10422L2.60385 9.09524L2.60866 9.08769C2.63797 9.03515 2.66759 8.98278 2.6974 8.93062L2.70637 8.91277L2.70648 8.91266L2.70736 8.9108L2.70856 8.90894L2.70867 8.90883L2.71721 8.89581C2.73132 8.87123 2.74587 8.84686 2.7601 8.82236H2.75791L2.79019 8.76873L2.79894 8.75165H2.80047L2.81787 8.72286L2.82181 8.71641H2.8136L2.84818 8.66419L2.84884 8.6631L2.85004 8.66124L2.87028 8.63092L2.87291 8.62709L2.88341 8.60596L2.89129 8.5902V8.57477H2.8914V8.57466H2.90617L2.97248 8.45677H2.97007L3.00235 8.40314L3.0052 8.39832L3.01209 8.38606H3.01264L3.03791 8.34425L3.03868 8.34293L3.43073 7.74912H3.42285L3.4618 7.69604L3.47067 7.67841H3.47077L3.47088 7.67831H3.47493L3.92399 7.06764L3.92552 7.06556L3.92738 7.06359L3.93865 7.05231L3.98548 6.99321C4.08334 6.86592 4.18297 6.74003 4.28442 6.61569L4.43169 6.42983L4.43301 6.42829L4.58379 6.25896C4.68953 6.13654 4.79718 6.01568 4.90657 5.89633L5.01063 5.77965L5.01129 5.77888L5.01205 5.77822L5.0788 5.71134C5.18463 5.59937 5.29202 5.48861 5.40115 5.37947C5.44113 5.33947 5.48136 5.29971 5.52173 5.26016L5.61287 5.16537L5.61375 5.16449L5.61462 5.16372L5.7572 5.03424C5.89691 4.90267 6.03881 4.77364 6.18284 4.64719H6.17726L6.24794 4.58841H6.24718L6.30407 4.54146C6.48302 4.38741 6.66537 4.23741 6.85073 4.09114L6.92459 4.0304L6.92525 4.02974L6.92601 4.02919L7.01081 3.96636C7.64133 3.48117 8.30772 3.04021 9.00749 2.64356L9.12194 2.57646L9.12282 2.57592L9.1237 2.57548L9.19405 2.53925C9.42076 2.41434 9.6509 2.29399 9.88438 2.17826L9.91305 2.16293L9.91392 2.16249L9.91491 2.16206L9.95276 2.14454C10.1922 2.0271 10.4352 1.91448 10.6815 1.80665L10.7282 1.78486L10.7292 1.78443L10.7301 1.7841L10.7638 1.77052C11.125 1.61443 11.4936 1.46886 11.8691 1.33335H11.8578L12.0412 1.27205C12.3892 1.15006 12.7431 1.03688 13.1027 0.932404H13.0738L13.3102 0.873187C13.6115 0.788975 13.9167 0.710762 14.2257 0.638727L14.2711 0.626797L14.2723 0.626468L14.2732 0.626249L14.3234 0.616398Z" fill="white"/>
<path d="M111.189 62.0322V16.5922H128.213C133.759 16.5922 137.962 17.5736 140.821 19.5362C143.722 21.4989 145.173 24.6136 145.173 28.8802C145.173 30.8002 144.767 32.4856 143.957 33.9362C143.189 35.3442 142.037 36.4536 140.501 37.2642C139.007 38.0749 137.194 38.5229 135.061 38.6082L134.997 38.4802C138.879 38.6082 141.866 39.6749 143.957 41.6802C146.047 43.6429 147.093 46.2669 147.093 49.5522C147.093 53.7336 145.642 56.8696 142.741 58.9602C139.882 61.0082 135.807 62.0322 130.517 62.0322H111.189ZM119.509 54.9922H130.133C132.735 54.9922 134.783 54.4589 136.277 53.3922C137.813 52.3256 138.581 50.7469 138.581 48.6562C138.581 46.5656 137.834 44.9656 136.341 43.8562C134.847 42.7469 132.778 42.1922 130.133 42.1922H119.509V54.9922ZM119.509 35.6642H127.957C130.687 35.6642 132.821 35.1522 134.357 34.1282C135.893 33.1042 136.661 31.6109 136.661 29.6482C136.661 27.6002 135.914 26.0856 134.421 25.1042C132.927 24.1229 130.773 23.6322 127.957 23.6322H119.509V35.6642ZM152.504 62.0322V27.8562H160.184L160.504 37.3282L159.8 37.2002C160.312 33.9149 161.272 31.5469 162.68 30.0962C164.13 28.6029 166.093 27.8562 168.568 27.8562H171.704V34.8962H168.504C166.754 34.8962 165.304 35.1522 164.152 35.6642C163 36.1762 162.125 36.9869 161.528 38.0962C160.973 39.1629 160.696 40.5709 160.696 42.3202V62.0322H152.504ZM189.057 62.8002C185.686 62.8002 182.721 62.0749 180.161 60.6242C177.643 59.1309 175.681 57.0402 174.273 54.3522C172.907 51.6642 172.225 48.5282 172.225 44.9442C172.225 41.3176 172.907 38.1816 174.273 35.5362C175.681 32.8482 177.643 30.7789 180.161 29.3282C182.721 27.8349 185.686 27.0882 189.057 27.0882C192.427 27.0882 195.371 27.8349 197.889 29.3282C200.406 30.7789 202.347 32.8482 203.713 35.5362C205.121 38.1816 205.825 41.3176 205.825 44.9442C205.825 48.5282 205.121 51.6642 203.713 54.3522C202.347 57.0402 200.406 59.1309 197.889 60.6242C195.371 62.0749 192.427 62.8002 189.057 62.8002ZM189.057 56.1442C191.702 56.1442 193.729 55.1629 195.137 53.2002C196.587 51.2376 197.313 48.4856 197.313 44.9442C197.313 41.4456 196.587 38.7149 195.137 36.7522C193.729 34.7469 191.702 33.7442 189.057 33.7442C186.411 33.7442 184.363 34.7469 182.913 36.7522C181.462 38.7149 180.737 41.4456 180.737 44.9442C180.737 48.4856 181.462 51.2376 182.913 53.2002C184.363 55.1629 186.411 56.1442 189.057 56.1442ZM216.207 62.0322L205.903 27.8562H214.287L220.943 52.7522L227.791 27.8562H234.959L241.871 52.7522L248.527 27.8562H256.911L246.607 62.0322H238.159L231.375 39.1202L224.655 62.0322H216.207ZM272.882 62.8002C269.511 62.8002 266.674 62.3096 264.37 61.3282C262.108 60.3469 260.359 58.9816 259.122 57.2322C257.884 55.4829 257.18 53.4989 257.01 51.2802L265.394 50.8962C265.692 52.6882 266.439 54.0749 267.634 55.0562C268.828 56.0376 270.599 56.5282 272.946 56.5282C274.866 56.5282 276.359 56.2296 277.426 55.6322C278.535 54.9922 279.09 54.0109 279.09 52.6882C279.09 51.9202 278.898 51.2802 278.514 50.7682C278.13 50.2562 277.404 49.8082 276.338 49.4242C275.271 49.0402 273.692 48.6562 271.602 48.2722C268.103 47.6749 265.351 46.9496 263.346 46.0962C261.34 45.2002 259.911 44.0909 259.058 42.7682C258.247 41.4456 257.842 39.8029 257.842 37.8402C257.842 34.6402 259.058 32.0589 261.49 30.0962C263.964 28.0909 267.57 27.0882 272.306 27.0882C275.378 27.0882 277.959 27.6002 280.05 28.6242C282.14 29.6056 283.762 30.9709 284.914 32.7202C286.108 34.4269 286.855 36.3896 287.154 38.6082L278.898 38.9922C278.684 37.8402 278.3 36.8376 277.746 35.9842C277.191 35.1309 276.444 34.4909 275.506 34.0642C274.567 33.5949 273.458 33.3602 272.178 33.3602C270.258 33.3602 268.807 33.7442 267.826 34.5122C266.844 35.2802 266.354 36.3042 266.354 37.5842C266.354 38.4802 266.567 39.2269 266.994 39.8242C267.463 40.4216 268.21 40.9122 269.234 41.2962C270.258 41.6376 271.623 41.9576 273.33 42.2562C276.914 42.8109 279.73 43.5362 281.778 44.4322C283.868 45.2856 285.34 46.3949 286.194 47.7602C287.09 49.0829 287.538 50.6829 287.538 52.5602C287.538 54.7362 286.919 56.5922 285.682 58.1282C284.487 59.6642 282.78 60.8376 280.562 61.6482C278.386 62.4162 275.826 62.8002 272.882 62.8002ZM306.795 62.8002C303.382 62.8002 300.417 62.0749 297.899 60.6242C295.382 59.1309 293.441 57.0402 292.075 54.3522C290.71 51.6642 290.027 48.5282 290.027 44.9442C290.027 41.3602 290.71 38.2456 292.075 35.6002C293.441 32.9122 295.361 30.8216 297.835 29.3282C300.353 27.8349 303.275 27.0882 306.603 27.0882C309.846 27.0882 312.683 27.8136 315.115 29.2642C317.59 30.7149 319.489 32.8056 320.811 35.5362C322.134 38.2669 322.795 41.5522 322.795 45.3922V47.2482H298.539C298.71 50.2349 299.521 52.4962 300.971 54.0322C302.465 55.5256 304.427 56.2722 306.859 56.2722C308.694 56.2722 310.209 55.8669 311.403 55.0562C312.641 54.2029 313.494 53.0296 313.963 51.5362L322.347 52.0482C321.409 55.3762 319.553 58.0002 316.779 59.9202C314.049 61.8402 310.721 62.8002 306.795 62.8002ZM298.539 41.7442H314.347C314.177 38.9709 313.387 36.9229 311.979 35.6002C310.571 34.2349 308.779 33.5522 306.603 33.5522C304.427 33.5522 302.614 34.2562 301.163 35.6642C299.755 37.0722 298.881 39.0989 298.539 41.7442ZM327.279 62.0322V27.8562H334.959L335.279 37.3282L334.575 37.2002C335.087 33.9149 336.047 31.5469 337.455 30.0962C338.905 28.6029 340.868 27.8562 343.343 27.8562H346.479V34.8962H343.279C341.529 34.8962 340.079 35.1522 338.927 35.6642C337.775 36.1762 336.9 36.9869 336.303 38.0962C335.748 39.1629 335.471 40.5709 335.471 42.3202V62.0322H327.279ZM382.607 63.0562C378.938 63.0562 375.717 62.3522 372.943 60.9442C370.213 59.5362 368.101 57.5522 366.607 54.9922C365.157 52.3896 364.431 49.3176 364.431 45.7762V16.5282H372.751V45.7762C372.751 48.9762 373.605 51.4509 375.311 53.2002C377.018 54.9496 379.45 55.8242 382.607 55.8242C385.765 55.8242 388.197 54.9496 389.903 53.2002C391.653 51.4509 392.527 48.9762 392.527 45.7762V16.5282H400.847V45.7762C400.847 49.3176 400.101 52.3896 398.607 54.9922C397.114 57.5522 395.002 59.5362 392.271 60.9442C389.583 62.3522 386.362 63.0562 382.607 63.0562ZM421.469 62.8002C418.099 62.8002 415.261 62.3096 412.957 61.3282C410.696 60.3469 408.947 58.9816 407.709 57.2322C406.472 55.4829 405.768 53.4989 405.597 51.2802L413.981 50.8962C414.28 52.6882 415.027 54.0749 416.221 55.0562C417.416 56.0376 419.187 56.5282 421.533 56.5282C423.453 56.5282 424.947 56.2296 426.013 55.6322C427.123 54.9922 427.677 54.0109 427.677 52.6882C427.677 51.9202 427.485 51.2802 427.101 50.7682C426.717 50.2562 425.992 49.8082 424.925 49.4242C423.859 49.0402 422.28 48.6562 420.189 48.2722C416.691 47.6749 413.939 46.9496 411.933 46.0962C409.928 45.2002 408.499 44.0909 407.645 42.7682C406.835 41.4456 406.429 39.8029 406.429 37.8402C406.429 34.6402 407.645 32.0589 410.077 30.0962C412.552 28.0909 416.157 27.0882 420.893 27.0882C423.965 27.0882 426.547 27.6002 428.637 28.6242C430.728 29.6056 432.349 30.9709 433.501 32.7202C434.696 34.4269 435.443 36.3896 435.741 38.6082L427.485 38.9922C427.272 37.8402 426.888 36.8376 426.333 35.9842C425.779 35.1309 425.032 34.4909 424.093 34.0642C423.155 33.5949 422.045 33.3602 420.765 33.3602C418.845 33.3602 417.395 33.7442 416.413 34.5122C415.432 35.2802 414.941 36.3042 414.941 37.5842C414.941 38.4802 415.155 39.2269 415.581 39.8242C416.051 40.4216 416.797 40.9122 417.821 41.2962C418.845 41.6376 420.211 41.9576 421.917 42.2562C425.501 42.8109 428.317 43.5362 430.365 44.4322C432.456 45.2856 433.928 46.3949 434.781 47.7602C435.677 49.0829 436.125 50.6829 436.125 52.5602C436.125 54.7362 435.507 56.5922 434.269 58.1282C433.075 59.6642 431.368 60.8376 429.149 61.6482C426.973 62.4162 424.413 62.8002 421.469 62.8002ZM455.383 62.8002C451.969 62.8002 449.004 62.0749 446.487 60.6242C443.969 59.1309 442.028 57.0402 440.663 54.3522C439.297 51.6642 438.615 48.5282 438.615 44.9442C438.615 41.3602 439.297 38.2456 440.663 35.6002C442.028 32.9122 443.948 30.8216 446.423 29.3282C448.94 27.8349 451.863 27.0882 455.191 27.0882C458.433 27.0882 461.271 27.8136 463.703 29.2642C466.177 30.7149 468.076 32.8056 469.399 35.5362C470.721 38.2669 471.383 41.5522 471.383 45.3922V47.2482H447.127C447.297 50.2349 448.108 52.4962 449.559 54.0322C451.052 55.5256 453.015 56.2722 455.447 56.2722C457.281 56.2722 458.796 55.8669 459.991 55.0562C461.228 54.2029 462.081 53.0296 462.551 51.5362L470.935 52.0482C469.996 55.3762 468.14 58.0002 465.367 59.9202C462.636 61.8402 459.308 62.8002 455.383 62.8002ZM447.127 41.7442H462.935C462.764 38.9709 461.975 36.9229 460.567 35.6002C459.159 34.2349 457.367 33.5522 455.191 33.5522C453.015 33.5522 451.201 34.2562 449.751 35.6642C448.343 37.0722 447.468 39.0989 447.127 41.7442Z" fill="white"/>
</svg>
